<?xml version="1.0" standalone="no"?>
<!DOCTYPE svg PUBLIC "-//W3C//DTD SVG 20010904//EN"
 "http://www.w3.org/TR/2001/REC-SVG-20010904/DTD/svg10.dtd">
<svg version="1.0" xmlns="http://www.w3.org/2000/svg"
 width="441.000000pt" height="613.000000pt" viewBox="0 0 441.000000 613.000000"
 preserveAspectRatio="xMidYMid meet">

<g transform="translate(0.000000,613.000000) scale(0.100000,-0.100000)"
fill="#000000" stroke="none">
<path d="M0 3065 l0 -3065 170 0 c164 0 170 1 170 20 0 62 67 133 137 146 84
16 174 -41 194 -123 l11 -43 166 2 166 3 6 30 c23 111 149 169 245 113 47 -28
85 -80 85 -119 l0 -29 169 0 168 0 13 45 c31 110 156 157 257 95 34 -20 73
-85 73 -120 0 -19 6 -20 170 -20 164 0 170 1 170 20 0 62 67 133 138 146 83
16 173 -41 195 -123 l11 -43 167 0 166 0 7 38 c16 106 145 164 240 109 47 -27
76 -63 85 -108 l7 -34 165 -3 166 -2 12 39 c15 51 56 100 98 117 96 41 214
-21 230 -121 l6 -35 168 0 169 0 0 3065 0 3065 -170 0 c-164 0 -170 -1 -170
-20 0 -62 -67 -133 -138 -146 -83 -16 -173 41 -193 122 l-11 44 -169 0 -169 0
0 -25 c0 -106 -147 -180 -245 -123 -47 28 -85 80 -85 119 l0 29 -169 0 -168 0
-13 -45 c-31 -110 -156 -157 -257 -95 -34 20 -73 85 -73 120 0 19 -6 20 -170
20 -164 0 -170 -1 -170 -20 0 -62 -67 -133 -137 -146 -84 -16 -174 41 -196
123 l-11 43 -167 0 -166 0 -7 -38 c-16 -106 -145 -164 -240 -109 -47 27 -76
63 -85 108 l-7 34 -164 3 -165 2 -18 -49 c-39 -111 -154 -153 -254 -91 -34 20
-73 85 -73 120 0 19 -6 20 -170 20 l-170 0 0 -3065z"/>
</g>
</svg>
