<svg width="113" height="172" viewBox="0 0 113 172" fill="none" xmlns="http://www.w3.org/2000/svg">
<rect x="1" y="1" width="111" height="170" rx="39" stroke="#E40000" stroke-width="2"/>
<path d="M25.62 131V118.4H27.834V123.584H33.846V118.4H36.06V131H33.846V125.456H27.834V131H25.62ZM41.7438 131.198C41.2278 131.198 40.7658 131.126 40.3578 130.982C39.9498 130.826 39.6078 130.616 39.3318 130.352C39.0558 130.076 38.8458 129.758 38.7018 129.398C38.5578 129.038 38.4858 128.642 38.4858 128.21C38.4858 127.262 38.7678 126.566 39.3318 126.122C39.8958 125.666 40.7238 125.438 41.8158 125.438H44.7858V124.88C44.7858 124.136 44.6178 123.626 44.2818 123.35C43.9458 123.074 43.4538 122.936 42.8058 122.936C42.1938 122.936 41.7498 123.044 41.4738 123.26C41.1978 123.476 41.0418 123.746 41.0058 124.07H39.0258C39.0498 123.674 39.1518 123.308 39.3318 122.972C39.5238 122.624 39.7818 122.324 40.1058 122.072C40.4418 121.82 40.8438 121.622 41.3118 121.478C41.7798 121.334 42.3078 121.262 42.8958 121.262C43.4838 121.262 44.0118 121.328 44.4798 121.46C44.9598 121.592 45.3678 121.802 45.7038 122.09C46.0398 122.366 46.2978 122.732 46.4778 123.188C46.6698 123.632 46.7658 124.178 46.7658 124.826V128.57C46.7658 129.074 46.7718 129.518 46.7838 129.902C46.7958 130.274 46.8258 130.64 46.8738 131H45.0738C45.0378 130.748 45.0138 130.514 45.0018 130.298C44.9898 130.082 44.9838 129.83 44.9838 129.542C44.8518 129.782 44.6838 130.004 44.4798 130.208C44.2758 130.4 44.0358 130.574 43.7598 130.73C43.4958 130.874 43.1898 130.988 42.8418 131.072C42.5058 131.156 42.1398 131.198 41.7438 131.198ZM42.2658 129.596C42.6138 129.596 42.9378 129.548 43.2378 129.452C43.5498 129.344 43.8198 129.2 44.0478 129.02C44.2758 128.828 44.4558 128.6 44.5878 128.336C44.7198 128.06 44.7858 127.748 44.7858 127.4V126.842H42.1758C41.6478 126.842 41.2398 126.956 40.9518 127.184C40.6638 127.412 40.5198 127.742 40.5198 128.174C40.5198 128.582 40.6578 128.924 40.9338 129.2C41.2098 129.464 41.6538 129.596 42.2658 129.596ZM49.2014 131V121.46H53.6654C54.2654 121.46 54.7814 121.526 55.2134 121.658C55.6574 121.778 56.0174 121.958 56.2934 122.198C56.5694 122.426 56.7734 122.696 56.9054 123.008C57.0494 123.32 57.1214 123.662 57.1214 124.034C57.1214 124.466 56.9894 124.874 56.7254 125.258C56.4614 125.642 56.1014 125.906 55.6454 126.05C56.2334 126.194 56.6834 126.47 56.9954 126.878C57.3194 127.274 57.4814 127.742 57.4814 128.282C57.4814 129.11 57.1994 129.77 56.6354 130.262C56.0834 130.754 55.2134 131 54.0254 131H49.2014ZM51.1814 129.362H53.7914C54.4154 129.362 54.8534 129.26 55.1054 129.056C55.3694 128.852 55.5014 128.552 55.5014 128.156C55.5014 127.748 55.3694 127.436 55.1054 127.22C54.8534 127.004 54.4154 126.896 53.7914 126.896H51.1814V129.362ZM51.1814 125.384H53.5034C54.1154 125.384 54.5414 125.282 54.7814 125.078C55.0214 124.862 55.1414 124.574 55.1414 124.214C55.1414 123.866 55.0214 123.596 54.7814 123.404C54.5414 123.2 54.1154 123.098 53.5034 123.098H51.1814V125.384ZM63.643 131.198C62.995 131.198 62.383 131.102 61.807 130.91C61.243 130.718 60.745 130.418 60.313 130.01C59.893 129.602 59.557 129.092 59.305 128.48C59.053 127.868 58.927 127.148 58.927 126.32V125.96C58.927 125.168 59.047 124.484 59.287 123.908C59.527 123.32 59.851 122.828 60.259 122.432C60.679 122.036 61.159 121.742 61.699 121.55C62.251 121.358 62.839 121.262 63.463 121.262C64.927 121.262 66.043 121.652 66.811 122.432C67.591 123.2 67.981 124.316 67.981 125.78V126.788H60.925C60.937 127.28 61.021 127.7 61.177 128.048C61.333 128.384 61.537 128.66 61.789 128.876C62.053 129.092 62.341 129.254 62.653 129.362C62.977 129.458 63.307 129.506 63.643 129.506C64.303 129.506 64.813 129.398 65.173 129.182C65.533 128.966 65.785 128.672 65.929 128.3H67.801C67.705 128.78 67.537 129.2 67.297 129.56C67.057 129.92 66.757 130.226 66.397 130.478C66.037 130.718 65.623 130.898 65.155 131.018C64.687 131.138 64.183 131.198 63.643 131.198ZM60.943 125.312H66.091C66.079 124.868 66.007 124.496 65.875 124.196C65.743 123.896 65.563 123.656 65.335 123.476C65.107 123.296 64.837 123.164 64.525 123.08C64.213 122.996 63.889 122.954 63.553 122.954C63.217 122.954 62.893 123.002 62.581 123.098C62.269 123.182 61.993 123.32 61.753 123.512C61.513 123.704 61.315 123.95 61.159 124.25C61.015 124.538 60.943 124.892 60.943 125.312ZM69.9612 134.6V121.46H71.7972V123.098C72.0972 122.546 72.5232 122.102 73.0752 121.766C73.6272 121.43 74.2812 121.262 75.0372 121.262C76.2852 121.262 77.2632 121.658 77.9712 122.45C78.6912 123.23 79.0512 124.4 79.0512 125.96V126.32C79.0512 127.124 78.9552 127.832 78.7632 128.444C78.5712 129.056 78.2952 129.566 77.9352 129.974C77.5872 130.382 77.1672 130.688 76.6752 130.892C76.1832 131.096 75.6372 131.198 75.0372 131.198C74.3052 131.198 73.6752 131.036 73.1472 130.712C72.6312 130.388 72.2292 129.968 71.9412 129.452V134.6H69.9612ZM74.5872 129.506C74.9352 129.506 75.2592 129.44 75.5592 129.308C75.8592 129.164 76.1172 128.96 76.3332 128.696C76.5612 128.432 76.7352 128.102 76.8552 127.706C76.9872 127.298 77.0532 126.836 77.0532 126.32V125.96C77.0532 125.468 76.9872 125.036 76.8552 124.664C76.7352 124.292 76.5612 123.98 76.3332 123.728C76.1172 123.476 75.8592 123.284 75.5592 123.152C75.2592 123.02 74.9352 122.954 74.5872 122.954C74.2032 122.954 73.8432 123.02 73.5072 123.152C73.1832 123.272 72.9072 123.446 72.6792 123.674C72.4512 123.89 72.2712 124.16 72.1392 124.484C72.0072 124.796 71.9412 125.138 71.9412 125.51V126.77C71.9412 127.178 72.0072 127.556 72.1392 127.904C72.2712 128.24 72.4512 128.528 72.6792 128.768C72.9072 128.996 73.1832 129.176 73.5072 129.308C73.8432 129.44 74.2032 129.506 74.5872 129.506ZM79.7838 131L83.1858 126.122L79.9638 121.46H82.2138L84.5178 124.754L86.7858 121.46H88.9638L85.7418 126.032L89.1438 131H86.8758L84.4278 127.382L81.9798 131H79.7838Z" fill="#E40000"/>
<path d="M57.0002 104.745V37.1448" stroke="#E40000" stroke-width="2"/>
<path d="M56.6085 36C56.6085 46.8144 47.8417 55.5812 37.0273 55.5812" stroke="#E40000" stroke-width="2"/>
<path d="M76.9731 55.5812C66.1587 55.5812 57.3919 46.8144 57.3919 36" stroke="#E40000" stroke-width="2"/>
</svg>
